<svg width="124" height="48" viewBox="0 0 124 48" fill="none" xmlns="http://www.w3.org/2000/svg">
<g clip-path="url(#clip0)">
<path d="M55.6768 10.4394C55.3563 10.0687 54.8404 9.83958 54.2801 9.82027L19.5428 8.61225C18.5461 8.57706 17.7132 9.19786 17.6706 9.99822C17.6283 10.7983 18.3965 11.4743 19.3884 11.5087L51.774 12.635L45.4063 28.6639H17.0693L11.9499 6.17455C11.8373 5.68166 11.4179 5.27045 10.8394 5.08735L2.45456 2.42975C1.53044 2.13785 0.487645 2.50406 0.124716 3.24872C-0.237587 3.99378 0.2162 4.83559 1.13982 5.1284L8.59528 7.49137L13.8051 30.3754C13.9621 31.0634 14.7053 31.563 15.5726 31.563H16.4369L14.4634 35.9855C14.2983 36.3559 14.3663 36.7673 14.6474 37.0892C14.9281 37.4111 15.3847 37.6026 15.872 37.6026H17.2562C16.3985 38.3727 15.872 39.3867 15.872 40.5018C15.872 42.8999 18.2906 44.8506 21.2623 44.8506C24.2341 44.8506 26.6526 42.8999 26.6526 40.5018C26.6526 39.3868 26.1262 38.3727 25.2686 37.6026H37.0208C36.1627 38.3727 35.6364 39.3867 35.6364 40.5018C35.6364 42.8999 38.0543 44.8506 41.0267 44.8506C43.9992 44.8506 46.417 42.8999 46.417 40.5018C46.417 39.3868 45.8906 38.3727 45.0332 37.6026H46.7165C47.5436 37.6026 48.2138 37.0618 48.2138 36.3946C48.2138 35.7273 47.5435 35.1866 46.7165 35.1866H18.0025L19.6194 31.5626H46.7164C47.4978 31.5626 48.1892 31.1554 48.4271 30.5556L55.9137 11.7106C56.0856 11.2805 55.9974 10.8102 55.6768 10.4394ZM21.2625 42.4351C19.9412 42.4351 18.8667 41.5683 18.8667 40.5023C18.8667 39.4364 19.9412 38.5695 21.2625 38.5695C22.5837 38.5695 23.6581 39.4364 23.6581 40.5023C23.6581 41.5683 22.5837 42.4351 21.2625 42.4351ZM41.0267 42.4351C39.7054 42.4351 38.6311 41.5683 38.6311 40.5023C38.6311 39.4364 39.7054 38.5695 41.0267 38.5695C42.3479 38.5695 43.4223 39.4364 43.4223 40.5023C43.4223 41.5683 42.3479 42.4351 41.0267 42.4351Z" fill="#636877"/>
</g>
<circle cx="100" cy="24" r="24" fill="#636877"/>
<path d="M101.805 32H99.625V17.5508L95.2539 19.1562V17.1875L101.465 14.8555H101.805V32Z" fill="white"/>
<defs>
<clipPath id="clip0">
<rect width="56" height="45.18" fill="white" transform="translate(0 1)"/>
</clipPath>
</defs>
</svg>
